<?xml version="1.0" standalone="no"?>
<!DOCTYPE svg PUBLIC "-//W3C//DTD SVG 20010904//EN"
 "http://www.w3.org/TR/2001/REC-SVG-20010904/DTD/svg10.dtd">
<svg version="1.0" xmlns="http://www.w3.org/2000/svg"
 width="850.000000pt" height="850.000000pt" viewBox="0 0 850.000000 850.000000"
 preserveAspectRatio="xMidYMid meet">
<metadata>
Created by potrace 1.11, written by Peter Selinger 2001-2013
</metadata>
<g transform="translate(0.000000,850.000000) scale(0.100000,-0.100000)"
fill="#000000" stroke="none">
<path d="M3998 8495 c-1 -1 -39 -5 -83 -9 -44 -3 -96 -8 -115 -10 -19 -3 -58
-7 -85 -10 -43 -5 -207 -32 -310 -51 -16 -3 -39 -8 -50 -10 -11 -2 -40 -8 -65
-14 -25 -7 -52 -13 -60 -15 -8 -2 -35 -9 -60 -16 -25 -7 -52 -14 -60 -15 -8
-2 -53 -16 -100 -30 -47 -15 -89 -28 -95 -29 -5 -2 -18 -6 -27 -9 -10 -4 -26
-10 -35 -14 -10 -3 -22 -7 -28 -9 -19 -4 -191 -72 -240 -94 -116 -52 -154 -69
-230 -106 -44 -21 -83 -43 -87 -49 -4 -5 -8 -6 -8 -2 0 5 -13 -1 -29 -12 -16
-12 -31 -21 -34 -21 -25 0 -403 -244 -492 -318 -5 -4 -26 -19 -45 -32 -19 -14
-42 -33 -51 -42 -9 -10 -19 -18 -23 -18 -6 0 -30 -20 -92 -75 -12 -11 -50 -45
-85 -75 -83 -72 -247 -237 -329 -330 -36 -41 -73 -82 -82 -92 -10 -10 -18 -21
-18 -24 0 -3 -11 -17 -25 -32 -14 -15 -51 -61 -82 -102 -31 -41 -59 -77 -62
-80 -19 -16 -216 -324 -243 -380 -7 -14 -15 -27 -18 -30 -18 -17 -220 -427
-220 -447 0 -3 -6 -19 -14 -36 -8 -18 -24 -59 -36 -92 -13 -33 -26 -69 -31
-80 -44 -113 -138 -448 -165 -590 -4 -22 -8 -42 -9 -45 0 -3 -4 -27 -9 -53 -4
-27 -10 -59 -12 -70 -5 -23 -7 -41 -19 -137 -4 -30 -8 -66 -11 -80 -25 -156
-25 -802 1 -924 2 -11 7 -43 10 -71 3 -27 7 -61 9 -75 3 -14 10 -59 16 -100 7
-41 14 -84 17 -95 2 -11 6 -33 9 -50 3 -16 15 -66 26 -110 11 -44 22 -89 24
-99 21 -108 178 -567 212 -621 4 -5 7 -12 7 -15 1 -3 16 -36 33 -74 18 -38 32
-72 32 -76 0 -4 9 -19 21 -34 11 -14 17 -26 14 -26 -4 0 -3 -6 3 -12 5 -7 33
-58 62 -113 29 -55 61 -112 71 -126 10 -15 19 -32 19 -38 0 -6 5 -11 10 -11 6
0 10 -5 10 -11 0 -12 153 -243 182 -273 10 -11 18 -24 18 -29 0 -4 6 -14 12
-21 7 -7 24 -28 38 -46 14 -18 32 -40 40 -50 8 -10 26 -32 40 -50 13 -17 33
-42 45 -55 138 -157 289 -313 386 -399 29 -26 68 -60 84 -75 17 -15 52 -45 80
-66 27 -22 61 -50 75 -62 14 -13 28 -23 31 -23 3 0 19 -11 35 -25 33 -30 189
-139 249 -174 22 -14 42 -28 43 -33 2 -4 10 -8 17 -8 8 0 20 -6 27 -13 23 -22
377 -216 408 -223 3 0 37 -15 75 -33 39 -18 99 -44 135 -58 36 -14 74 -29 85
-33 74 -30 212 -78 248 -85 9 -2 21 -6 25 -9 7 -4 83 -25 202 -57 106 -28 353
-75 460 -88 52 -7 109 -14 125 -16 91 -14 237 -20 460 -19 203 0 410 7 410 14
0 1 22 3 48 5 27 2 60 6 75 9 15 3 50 8 77 12 54 6 86 11 125 19 14 3 39 8 55
10 17 3 37 8 46 11 10 2 30 6 45 8 16 2 67 14 114 26 47 12 92 23 101 25 9 2
63 18 120 35 57 17 109 32 114 34 32 7 323 121 400 157 39 18 72 33 75 34 15
3 128 61 143 74 9 8 17 11 17 6 0 -4 6 -3 13 3 6 5 37 23 67 40 30 16 71 39
90 50 19 12 51 31 70 42 61 35 204 130 228 150 12 11 26 20 31 20 4 0 16 9 26
20 10 11 22 20 26 20 4 0 18 9 31 19 12 11 61 50 108 88 212 169 387 339 597
582 30 35 28 31 119 151 158 207 304 438 409 648 82 165 105 214 105 227 0 8
5 15 10 15 6 0 9 3 8 8 -1 7 0 10 39 106 29 71 73 191 78 214 2 9 13 42 24 74
16 43 83 284 96 343 1 6 5 28 10 50 10 53 14 70 26 130 5 28 12 68 15 90 3 22
7 51 10 65 2 14 7 45 10 70 3 25 7 61 9 80 14 104 20 250 20 465 0 239 -8 373
-30 545 -6 49 -37 232 -48 285 -3 11 -8 38 -12 60 -10 49 -8 42 -34 145 -12
47 -33 123 -47 170 -15 47 -26 85 -25 85 1 0 -13 38 -30 85 -17 47 -32 90 -34
95 -1 6 -7 24 -14 40 -7 17 -23 58 -37 93 -66 166 -244 522 -266 530 -4 2 -8
9 -8 15 0 20 -255 405 -290 437 -3 3 -32 39 -64 80 -33 41 -67 82 -75 91 -9 9
-41 45 -71 80 -92 106 -297 306 -417 406 -12 10 -31 26 -42 35 -16 13 -184
142 -256 196 -26 19 -214 141 -243 158 -19 10 -46 26 -60 34 -15 8 -47 27 -72
41 -58 34 -270 141 -335 168 -27 12 -63 29 -80 38 -16 10 -32 17 -35 16 -3 0
-16 4 -30 9 -179 70 -382 137 -490 162 -41 10 -81 19 -88 22 -7 2 -16 4 -20 5
-53 14 -82 21 -107 25 -16 3 -46 9 -65 14 -20 6 -55 12 -79 15 -24 3 -47 7
-50 9 -3 3 -38 7 -76 11 -39 4 -72 9 -75 10 -3 2 -39 6 -80 10 -41 4 -88 9
-105 12 -35 5 -602 13 -607 8z"/>
</g>
</svg>
